<?xml version="1.0" standalone="no"?><!DOCTYPE svg PUBLIC "-//W3C//DTD SVG 1.1//EN" "http://www.w3.org/Graphics/SVG/1.1/DTD/svg11.dtd"><svg t="1563772509213" class="icon" viewBox="0 0 1024 1024" version="1.1" xmlns="http://www.w3.org/2000/svg" p-id="5699" xmlns:xlink="http://www.w3.org/1999/xlink" width="200" height="200"><defs><style type="text/css"></style></defs><path d="M512.353552 183.780677c-146.358369 0-292.714691-0.042979-439.07306 0.144286-6.443759 0.007163-8.502651-1.284249-8.4126-8.16496 0.415462-31.715329 0.156566-63.440891 0.198521-95.16236 0.01228-10.275018-1.201361-9.232269 8.963139-9.234315 188.578959-0.016373 377.159966-0.011256 565.738925-0.011256 104.352673 0 208.707392 0.056282 313.061089-0.141216 6.199189-0.01228 8.123005 1.394766 8.054443 7.841595-0.340761 31.936363-0.127913 63.879889-0.171915 95.819322-0.013303 9.821693 1.175779 8.899694-8.633634 8.900717C805.504172 183.785793 658.928862 183.780677 512.353552 183.780677z" p-id="5700" fill="#BFCBD9"></path><path d="M512.938883 407.393547c-146.550751 0-293.103548-0.041956-439.655322 0.138146-6.395664 0.008186-8.508791-1.228991-8.41874-8.139378 0.419556-32.149211 0.357134-64.306608 0.035816-96.458889-0.061398-6.121418 1.732457-7.490601 7.629771-7.486508 185.705516 0.155543 371.411031 0.127913 557.116547 0.127913 107.834984 0 215.670991 0.041956 323.506998-0.11461 5.704932-0.00921 7.807826 1.059122 7.739265 7.378038-0.352017 32.369222-0.323365 64.744583-0.019443 97.114828 0.057305 6.065136-1.647523 7.575536-7.622608 7.569396C806.480406 407.357731 659.709645 407.393547 512.938883 407.393547z" p-id="5701" fill="#BFCBD9"></path><path d="M512.816087 631.619378c-146.553821 0-293.103548-0.048095-439.655322 0.153496-6.574742 0.010233-8.363482-1.49505-8.283664-8.199753 0.385786-32.148188 0.295735-64.305585 0.056282-96.457866-0.039909-5.473665 0.967024-7.462972 7.065929-7.459902 293.977451 0.164752 587.956949 0.158612 881.9344 0.027629 5.466502-0.001023 6.962575 1.476631 6.918573 6.928806-0.248663 32.588209-0.315178 65.182558 0.044002 97.768721 0.069585 6.376221-2.115174 7.354502-7.770987 7.347339C806.35454 631.590725 659.584802 631.619378 512.816087 631.619378z" p-id="5702" fill="#BFCBD9"></path><path d="M345.524966 743.411487c90.569762 0 181.14157 0.061398 271.713378-0.1361 6.03853-0.013303 7.667633 1.583055 7.611352 7.609305-0.293689 32.81436-0.246617 65.630766-0.025583 98.445126 0.033769 5.152347-1.376347 6.624884-6.587022 6.621814-182.234461-0.13303-364.468922-0.130983-546.70543-0.002047-5.192256 0.005117-6.630001-1.429559-6.593162-6.600325 0.224104-32.815383 0.264013-65.633836-0.024559-98.44615-0.052189-5.985318 1.503237-7.644097 7.584746-7.628748C163.507446 743.473909 254.514159 743.411487 345.524966 743.411487z" p-id="5703" fill="#BFCBD9"></path></svg>