<?xml version="1.0" standalone="no"?><!DOCTYPE svg PUBLIC "-//W3C//DTD SVG 1.1//EN" "http://www.w3.org/Graphics/SVG/1.1/DTD/svg11.dtd"><svg t="1563772549872" class="icon" viewBox="0 0 1280 1024" version="1.1" xmlns="http://www.w3.org/2000/svg" p-id="6497" xmlns:xlink="http://www.w3.org/1999/xlink" width="250" height="200"><defs><style type="text/css"></style></defs><path d="M1168 375.082667l-85.312 163.605333c-20.416 39.168-76.330667 69.312-125.888 69.312H505.002667l17.152 64H1120c23.573333 0 45.738667 19.093333 49.536 42.666667l6.869333 42.666666c3.797333 23.573333-12.245333 42.666667-35.797333 42.666667H457.92c-23.552 0-45.738667-19.093333-49.536-42.666667l-7.125333-44.330666c-0.704-1.898667-1.621333-3.690667-2.154667-5.696L258.176 181.333333H138.666667a64 64 0 1 1 0-128h170.666666a64 64 0 0 1 64 64v0.554667l0.32-0.085333 28.458667 106.197333 13.888 21.333333h-1.877333 595.754666c6.336 0 9.664-4.778667 7.445334-10.666666s-9.130667-10.666667-15.445334-10.666667h70.208c96.469333 0 137.557333 71.189333 95.914667 151.082667zM1056 885.333333a85.333333 85.333333 0 1 1-170.666667 0 85.333333 85.333333 0 0 1 170.666667 0z m-426.666667 0a85.333333 85.333333 0 1 1-170.666666 0 85.333333 85.333333 0 0 1 170.666666 0z m-149.333333-678.485333l42.666667-73.898667a42.666667 42.666667 0 0 1 58.282666-15.616l111.424 64.341334c3.008-1.685333 6.186667-3.136 9.685334-4.074667l206.058666-55.210667a42.666667 42.666667 0 0 1 52.266667 30.165334l19.136 71.445333H474.666667c0.576-5.866667 2.197333-11.712 5.333333-17.152z" p-id="6498" fill="#BFCBD9"></path></svg>