<?xml version="1.0" standalone="no"?><!DOCTYPE svg PUBLIC "-//W3C//DTD SVG 1.1//EN" "http://www.w3.org/Graphics/SVG/1.1/DTD/svg11.dtd"><svg t="1564122329523" class="icon" viewBox="0 0 1024 1024" version="1.1" xmlns="http://www.w3.org/2000/svg" p-id="5962" xmlns:xlink="http://www.w3.org/1999/xlink" width="200" height="200"><defs><style type="text/css"></style></defs><path d="M972.893091 544.349091L821.499345 142.792145H658.348218v30.915491h124.509091l102.111418 366.713019h-219.415272L509.598255 684.6464 344.045382 540.420655H127.022545L229.106036 173.707636h126.938764v-30.915491H195.295418L46.545455 550.064873h0.837818a14.726982 14.726982 0 0 0-0.837818 4.831418v412.076218a14.429091 14.429091 0 0 0 14.391854 14.466327h902.116073a14.429091 14.429091 0 0 0 14.391854-14.466327V554.896291c0-4.170473-1.750109-7.912727-4.552145-10.5472m-463.127273-67.779491l160.088437-186.023564h-84.200728V89.060073H438.318545v201.485963H354.117818l155.648 186.023564z m75.887709-434.008436H438.318545v25.832727h147.344291V42.561164z" fill="#BFCBD9" p-id="5963"></path></svg>